<svg width="24" height="24" viewBox="0 0 24 24" fill="none" xmlns="http://www.w3.org/2000/svg">
<path d="M12.0009 2C10.2468 2 8.78611 3.31072 8.54096 5H5.12006C5.07748 4.99271 5.03435 4.98912 4.99115 4.98926C4.95383 4.99006 4.91661 4.99365 4.87982 5H3.25092C3.15153 4.99859 3.05286 5.01696 2.96063 5.05402C2.86841 5.09108 2.78447 5.1461 2.71369 5.21588C2.64291 5.28566 2.58671 5.36882 2.54835 5.46051C2.50999 5.5522 2.49023 5.65061 2.49023 5.75C2.49023 5.84939 2.50999 5.9478 2.54835 6.03949C2.58671 6.13118 2.64291 6.21434 2.71369 6.28412C2.78447 6.3539 2.86841 6.40892 2.96063 6.44598C3.05286 6.48304 3.15153 6.50141 3.25092 6.5H4.32025L5.57904 19.5146C5.71458 20.918 6.90681 22 8.31635 22H15.6845C17.0941 22 18.2863 20.9181 18.4218 19.5146L19.6816 6.5H20.7509C20.8503 6.50141 20.949 6.48304 21.0412 6.44598C21.1334 6.40892 21.2174 6.3539 21.2881 6.28412C21.3589 6.21434 21.4151 6.13118 21.4535 6.03949C21.4918 5.9478 21.5116 5.84939 21.5116 5.75C21.5116 5.65061 21.4918 5.5522 21.4535 5.46051C21.4151 5.36882 21.3589 5.28566 21.2881 5.21588C21.2174 5.1461 21.1334 5.09108 21.0412 5.05402C20.949 5.01696 20.8503 4.99859 20.7509 5H19.123C19.0434 4.98709 18.9623 4.98709 18.8828 5H15.4609C15.2157 3.31072 13.7551 2 12.0009 2ZM12.0009 3.5C12.9405 3.5 13.7113 4.13408 13.9316 5H10.0703C10.2905 4.13408 11.0613 3.5 12.0009 3.5ZM5.82611 6.5H18.1747L16.9287 19.3701C16.8661 20.0177 16.3349 20.5 15.6845 20.5H8.31635C7.66689 20.5 7.13467 20.0168 7.07221 19.3701L5.82611 6.5ZM10.2392 8.98926C10.0405 8.99236 9.85107 9.07423 9.71264 9.21686C9.57422 9.3595 9.49807 9.55125 9.50092 9.75V17.25C9.49951 17.3494 9.51787 17.4481 9.55493 17.5403C9.59199 17.6325 9.64701 17.7164 9.7168 17.7872C9.78658 17.858 9.86973 17.9142 9.96143 17.9526C10.0531 17.9909 10.1515 18.0107 10.2509 18.0107C10.3503 18.0107 10.4487 17.9909 10.5404 17.9526C10.6321 17.9142 10.7153 17.858 10.785 17.7872C10.8548 17.7164 10.9098 17.6325 10.9469 17.5403C10.984 17.4481 11.0023 17.3494 11.0009 17.25V9.75C11.0024 9.64962 10.9836 9.54997 10.9458 9.45695C10.9081 9.36394 10.852 9.27946 10.781 9.20852C10.7099 9.13758 10.6254 9.08161 10.5323 9.04395C10.4393 9.00629 10.3396 8.98769 10.2392 8.98926ZM13.7392 8.98926C13.5405 8.99236 13.3511 9.07423 13.2126 9.21686C13.0742 9.3595 12.9981 9.55125 13.0009 9.75V17.25C12.9995 17.3494 13.0179 17.4481 13.0549 17.5403C13.092 17.6325 13.147 17.7164 13.2168 17.7872C13.2866 17.858 13.3697 17.9142 13.4614 17.9526C13.5531 17.9909 13.6515 18.0107 13.7509 18.0107C13.8503 18.0107 13.9487 17.9909 14.0404 17.9526C14.1321 17.9142 14.2153 17.858 14.285 17.7872C14.3548 17.7164 14.4098 17.6325 14.4469 17.5403C14.484 17.4481 14.5023 17.3494 14.5009 17.25V9.75C14.5024 9.64962 14.4836 9.54997 14.4458 9.45695C14.4081 9.36394 14.352 9.27946 14.281 9.20852C14.2099 9.13758 14.1254 9.08161 14.0323 9.04395C13.9393 9.00629 13.8396 8.98769 13.7392 8.98926Z" fill="#636363"/>
</svg>
