<svg width="64" height="64" viewBox="0 0 64 64" fill="none" xmlns="http://www.w3.org/2000/svg">
<circle cx="32" cy="32" r="32" fill="#304830"/>
<path d="M23.8301 31.5981C23.934 31.5248 24.0144 31.3457 24.0913 31.245C24.1843 31.1225 24.2795 31.0021 24.3758 30.8816C26.2564 28.5651 29.0088 27.2136 31.7394 26.1513C32.7089 25.7618 33.7199 25.4659 34.7477 25.2751C35.0732 25.2176 35.4024 25.1759 35.7318 25.1537C37.383 25.0424 38.8005 25.4669 39.6298 26.7519C39.9151 27.2038 40.076 27.7966 40.1224 28.4818C40.4571 33.4229 35.4474 43.4837 35.4474 43.4837C35.4474 43.4837 43.7118 33.3968 46.6399 29.963C48.5702 27.7072 49.7851 26.5863 50.706 26.5243C51.1751 26.4927 51.5558 26.7449 51.9177 27.2514C51.9628 27.336 51.9898 27.4292 51.9963 27.5248C51.9968 27.5329 51.9972 27.5411 51.9975 27.5491C52.1563 29.8932 46.7138 42.1448 45.7986 44.7187C45.3105 46.0924 45.1498 46.9337 45.1874 47.4892C45.188 47.5067 45.1888 47.5249 45.1899 47.5426C45.2173 47.9469 45.4199 48.3197 45.7444 48.5633C45.8188 48.6297 45.8642 48.7225 45.8709 48.8218C45.8712 48.8254 45.8714 48.8292 45.8715 48.8327C45.9008 49.265 45.4261 49.9376 44.9689 49.9684C44.6558 49.9895 44.334 49.7213 44.1821 48.9097C44.168 48.8207 44.1575 48.7305 44.1514 48.6402C44.1502 48.6226 44.1492 48.6034 44.1481 48.5861C43.9754 46.0367 46.3987 40.1486 47.8522 36.2345C49.0313 33.0751 50.1633 29.9426 50.0876 28.8251C50.0672 28.5236 49.9722 28.3737 49.7674 28.3875C49.6304 28.405 49.4992 28.4553 49.3857 28.5339C47.7221 29.5395 37.3716 41.7354 36.1188 43.4385C34.8661 45.1417 34.9238 44.7394 33.8989 47.1394C32.9369 49.3755 32.4977 50.9413 31.6299 50.9998C31.5733 51.0006 31.5163 50.9965 31.4603 50.9873C30.9212 50.9031 30.5642 50.6134 30.5325 50.1444C30.5072 49.7715 30.6921 49.2879 31.1614 48.7123C32.2244 47.4215 36.4371 38.4653 38.0966 32.1934C38.4049 31.0251 38.531 30.0265 38.474 29.1845C38.3315 27.0804 37.0735 26.0219 34.7712 26.1771C33.9639 26.244 33.1601 26.4089 32.3902 26.6634C29.3506 27.6152 26.8912 29.3562 24.3572 31.2163L23.8301 31.598L23.8301 31.5981Z" fill="white"/>
<path d="M35.6197 16.2171C35.6197 18.0869 34.7127 19.8054 32.8986 21.3727C31.2054 22.885 29.5001 23.6412 27.7828 23.6412C26.017 23.6412 25.1342 22.8713 25.1342 21.3315C25.1342 20.2316 25.3519 19.6817 25.7872 19.6817C25.9566 19.6817 26.0412 19.8054 26.0412 20.0529C26.0412 20.1354 26.0291 20.2591 26.0049 20.4241C25.9807 20.5891 25.9686 20.7128 25.9686 20.7953C25.9686 21.8677 26.5854 22.4039 27.819 22.4039C29.101 22.4039 30.5523 21.7027 32.1729 20.3004C33.7935 18.898 34.6038 17.5094 34.6038 16.1346C34.6038 14.7873 33.6 14.1136 31.5924 14.1136C31.1812 14.1136 30.7821 14.1411 30.3951 14.1961C28.3149 14.4436 25.9445 15.4403 23.2838 17.1864C20.6231 18.9324 18.4098 20.974 16.6441 23.3113C14.6849 25.9509 13.7053 28.4806 13.7053 30.9004C13.7053 32.4127 14.1527 33.5675 15.0477 34.3649C15.8459 35.0799 16.9344 35.4373 18.3131 35.4373C22.7153 35.4373 26.9845 33.485 31.1207 29.5805C31.2175 29.498 31.3142 29.4568 31.411 29.4568C31.7012 29.4568 31.8464 29.6355 31.8464 29.993C31.8464 30.1305 31.798 30.2542 31.7012 30.3642C29.9355 32.2065 27.8432 33.7738 25.4244 35.0661C22.7637 36.4959 20.357 37.2109 18.2043 37.2109C16.4385 37.2109 15.0114 36.7984 13.923 35.9735C12.641 35.0111 12 33.5813 12 31.684C12 29.4293 12.8103 26.9683 14.4309 24.3011C16.3418 21.139 18.8211 18.5131 21.8688 16.4233C25.1342 14.1411 28.3512 13 31.5198 13C34.2531 13 35.6197 14.0724 35.6197 16.2171L35.6197 16.2171Z" fill="white"/>
</svg>
