<svg width="32" height="32" viewBox="0 0 32 32" fill="none" xmlns="http://www.w3.org/2000/svg">
<path d="M11 4C9.355 4 8 5.355 8 7V25C8 26.645 9.355 28 11 28H21C22.645 28 24 26.645 24 25V7C24 5.355 22.645 4 21 4H11ZM11 6H21C21.555 6 22 6.445 22 7V25C22 25.555 21.555 26 21 26H11C10.445 26 10 25.555 10 25V7C10 6.445 10.445 6 11 6ZM16 23C15.7348 23 15.4804 23.1054 15.2929 23.2929C15.1054 23.4804 15 23.7348 15 24C15 24.2652 15.1054 24.5196 15.2929 24.7071C15.4804 24.8946 15.7348 25 16 25C16.2652 25 16.5196 24.8946 16.7071 24.7071C16.8946 24.5196 17 24.2652 17 24C17 23.7348 16.8946 23.4804 16.7071 23.2929C16.5196 23.1054 16.2652 23 16 23Z" fill="black"/>
</svg>
