<svg width="32" height="32" viewBox="0 0 32 32" fill="none" xmlns="http://www.w3.org/2000/svg">
<circle cx="16" cy="16" r="16" fill="#304830"/>
<path d="M9.08781 16.3861C9.08781 16.971 9.21385 17.4809 9.49031 17.8476C9.8114 18.277 10.4152 18.4945 11.1699 18.4945C13.1569 18.4945 16.2012 16.971 17.9118 13.6555C17.9118 13.6555 17.9938 13.3508 18.1945 13.3508H18.2007C18.3013 13.3569 18.3765 13.4503 18.3765 13.5935C18.3765 13.7366 18.2951 13.9289 18.0746 14.1156C17.6472 14.4763 17.2889 15.0661 17.2889 15.0661C17.2889 15.0661 14.975 18.1462 11.8969 18.6689C11.6257 18.7167 11.3508 18.7408 11.0754 18.7411C9.33315 18.7411 8.15107 17.69 8.15107 15.8427C8.15107 14.9655 8.41508 13.9144 9.00641 12.7117C9.03749 12.6435 9.07538 12.5748 9.10702 12.5066C8.74249 12.4342 8.38356 12.3365 8.03292 12.2142C7.04418 11.8765 6.84915 11.8083 5.94351 11.0255C5.1385 10.3339 5 9.67473 5 9.16483C5 9.09606 5 9.02785 5.00622 8.96579C5.03166 8.42459 5.30188 7.68434 6.25783 7.2488C6.61679 7.08513 7.00732 7.00025 7.40259 7C7.82997 7 8.12563 7.10567 8.12563 7.18059V7.19289C8.09483 7.2522 8.04922 7.30275 7.99313 7.33974C7.93703 7.37673 7.8723 7.39892 7.8051 7.40423C7.75534 7.40516 7.70665 7.38983 7.6666 7.36062C7.59141 7.30471 7.33984 7.20519 7.00631 7.20519C6.64168 7.20519 6.18264 7.32372 5.74848 7.7464C5.55992 7.92872 5.40955 8.14601 5.30595 8.38585C5.20236 8.62568 5.14757 8.88336 5.14472 9.14414C5.14472 10.0091 5.76657 11.0479 7.74857 11.9061C8.21202 12.1029 8.69443 12.2528 9.18843 12.3534C11.201 8.49559 13.8048 7.27787 15.5912 7.25886H15.6279C16.7784 7.25886 17.2504 7.81237 17.2504 8.57778C17.2504 9.00661 17.0932 9.51091 16.8287 10.0147C16.6455 10.3898 16.2198 10.8874 15.6353 11.3666C15.0508 11.8457 13.9433 12.3556 12.3078 12.6229C11.8967 12.6895 11.4808 12.7229 11.0641 12.7224C10.7552 12.7218 10.4465 12.7052 10.1393 12.6726C9.50952 13.9295 9.08781 15.2914 9.08781 16.3861ZM16.918 8.90094C16.9262 8.68826 16.8594 8.47938 16.7292 8.30997C16.6037 8.15454 16.3334 8.08018 15.9745 8.08018C14.9117 8.08018 13.0563 8.77682 11.7041 10.2942C11.1761 10.8913 10.6605 11.669 10.2343 12.4965C10.4417 12.5088 10.6492 12.5211 10.8561 12.5211C13.0009 12.5211 14.806 11.7384 15.3346 11.3643C15.8194 11.0116 16.2368 10.5762 16.5669 10.0784C16.5669 10.0784 16.918 9.47569 16.918 8.90094Z" fill="white"/>
<path d="M12.2266 14.5316C12.2831 14.4975 12.3311 14.4081 12.3747 14.3588C12.4272 14.299 12.481 14.2403 12.5352 14.1816C13.5935 13.0539 15.0707 12.4534 16.5264 12.0011C17.0446 11.8337 17.5785 11.7175 18.12 11.6545C18.291 11.636 18.4629 11.6265 18.635 11.626C19.4965 11.626 20.2179 11.8938 20.6034 12.5843C20.7357 12.8269 20.7985 13.1378 20.7985 13.4923C20.7985 16.0485 17.8424 21.0558 17.8424 21.0558C17.8424 21.0558 22.4899 16.148 24.1316 14.4813C25.2136 13.3866 25.8841 12.8515 26.3645 12.8515C26.6093 12.8515 26.7982 12.9946 26.9683 13.2681C26.9907 13.317 27.0014 13.3704 26.9994 13.4241C26.9994 14.6367 23.7415 20.7572 23.1756 22.051C22.8737 22.7414 22.7607 23.1691 22.7607 23.4565C22.7565 23.5645 22.7769 23.672 22.8205 23.7711C22.864 23.8702 22.9296 23.9584 23.0122 24.0291C23.0309 24.0479 23.0455 24.0703 23.0552 24.0949C23.0649 24.1195 23.0695 24.1458 23.0688 24.1722C23.0688 24.3958 22.7985 24.7257 22.56 24.7257C22.3966 24.7257 22.2389 24.5764 22.1886 24.1531C22.1834 24.0974 22.1813 24.0414 22.1823 23.9854C22.1823 22.6665 23.6482 19.7184 24.5409 17.7532C25.2644 16.167 25.9626 14.5931 25.9626 14.015C25.9626 13.859 25.9185 13.7785 25.8117 13.7785C25.7398 13.7827 25.67 13.804 25.6082 13.8406C24.7088 14.3007 18.9035 20.2221 18.1929 21.0558C17.4823 21.8894 17.5264 21.6842 16.9096 22.8846C16.3313 24.0028 16.0481 24.7939 15.5953 24.7939C15.5658 24.7924 15.5365 24.7883 15.5077 24.7816C15.2306 24.7195 15.0554 24.558 15.0554 24.3153C15.0554 24.1224 15.1685 23.8798 15.4325 23.5997C16.03 22.9718 18.5332 18.5057 19.6158 15.3334C19.8171 14.7424 19.9177 14.2325 19.9177 13.797C19.9177 12.7084 19.3015 12.1196 18.1002 12.1196C17.677 12.1265 17.2561 12.1828 16.8463 12.2874C15.234 12.6721 13.8954 13.4833 12.5137 14.3533L12.2266 14.5316Z" fill="white"/>
</svg>
